<?xml version="1.0" standalone="no"?>
<!DOCTYPE svg PUBLIC "-//W3C//DTD SVG 20010904//EN"
 "http://www.w3.org/TR/2001/REC-SVG-20010904/DTD/svg10.dtd">
<svg version="1.0" xmlns="http://www.w3.org/2000/svg"
 width="164.000000pt" height="164.000000pt" viewBox="0 0 164.000000 164.000000"
 preserveAspectRatio="xMidYMid meet">
<metadata>
Created by potrace 1.11, written by Peter Selinger 2001-2013
</metadata>
<g transform="translate(0.000000,164.000000) scale(0.100000,-0.100000)"
fill="#000000" stroke="none">
<path d="M963 1582 c-17 -11 -38 -75 -52 -157 -16 -97 -19 -136 -26 -335 -12
-366 -20 -410 -69 -410 -37 0 -134 101 -207 212 -55 87 -57 92 -44 118 19 36
88 220 113 300 35 116 46 170 33 183 -18 18 -27 -1 -55 -108 -27 -104 -116
-355 -126 -355 -3 0 -18 25 -35 55 -16 31 -42 67 -56 81 l-27 26 -22 -22 c-21
-21 -22 -28 -16 -114 4 -50 8 -102 10 -116 2 -14 7 -50 11 -80 3 -30 8 -65 11
-77 11 -42 -85 -209 -152 -263 -42 -35 -49 -50 -26 -58 19 -6 125 108 159 173
36 69 34 72 63 -85 12 -63 33 -162 47 -220 13 -58 26 -114 28 -125 25 -122 38
-155 62 -155 20 0 17 23 -32 230 -20 85 -38 166 -41 180 -2 14 -7 36 -10 50
-7 31 -15 69 -19 95 -2 11 -8 54 -15 95 l-12 75 37 78 36 79 51 -74 c100 -146
167 -210 230 -222 35 -6 73 23 87 67 20 62 20 61 36 467 5 118 12 183 30 292
3 15 10 40 16 55 l11 28 14 -35 c8 -19 37 -112 64 -206 101 -350 277 -806 348
-901 24 -32 52 -44 52 -22 0 6 -27 66 -59 133 -119 242 -258 632 -331 926 -29
116 -73 170 -117 142z m-488 -549 l35 -61 -32 -69 -31 -68 -13 87 c-6 47 -14
114 -16 148 -5 71 -2 69 57 -37z"/>
</g>
</svg>
